<svg aria-hidden="true" style="position: absolute; width: 0; height: 0; overflow: hidden;" version="1.1" xmlns="http://www.w3.org/2000/svg" xmlns:xlink="http://www.w3.org/1999/xlink">
<defs>
<symbol id="icon-milk-ice1" viewBox="0 0 23 32">
<path  d="M16.687 30.167c0.178-0.419 1.492-8.155 1.687-8.726-0.261 0.109-0.48 0.354-0.715 0.521-0.771 0.552-1.459 0.884-2.354 1.23-1.146 0.442-2.654 0.728-4.13 0.713-1.994-0.021-4.154-0.474-5.77-1.483-0.224-0.14-0.537-0.33-0.751-0.485-0.228-0.167-0.413-0.424-0.678-0.496 0.47 2.102 1.038 5.387 1.466 7.696 0.055 0.296 0.109 0.765 0.196 1.030h11.049zM6.807 5.525c-0.686 0-1.185 0.809-1.557 1.146-0.674 0.614-1.55-0.263-0.937-0.956 0.329-0.372 1.115-0.934 1.189-1.543 0.069-0.57-0.649-1.391-0.855-1.831h13.055c-0.199 0.424-0.489 0.764-0.717 1.186-0.569 1.056 0.637 1.615 1.109 2.256 0.326 0.443 0.076 1.016-0.41 1.085-1.016 0.144-1.312-2.111-2.885-1.062-1.466 0.978-2.677 0.714-2.911 1.669-0.207 0.847 0.39 3.015-0.815 2.818-0.58-0.095-0.579-0.624-0.576-1.231 0.002-0.493 0.086-1.376-0.1-1.772-0.216-0.458-0.584-0.541-1.108-0.687-1.27-0.353-1.942-1.078-2.483-1.078zM13.021 11.687c0.24-0.716 0.862-0.062 0.862-3.188 0.522-0.085 1.068-0.438 1.538-0.625 0.397 0.602 1.050 0.786 1.292 0.948 2.601 0.555 3.944-1.516 3.45-3.394-0.177-0.672-0.586-1.091-0.996-1.462 0.097-0.327 0.412-0.68 0.559-1.091 0.143-0.401 0.223-0.953 0.224-1.441 0.001-1.282-1.046-1.169-2.191-1.153-2.163 0.031-4.422 0.042-6.583 0.002-2.155-0.040-4.428-0.034-6.583 0.003-0.403 0.007-1.218-0.058-1.554 0.072-1.046 0.405-0.614 2.201-0.174 3.022 0.124 0.232 0.24 0.329 0.32 0.586-2.323 2.104-0.672 5.096 1.781 4.97 0.831-0.043 1.653-0.605 1.959-1.069l1.389 0.596c0.633 0.363-0.543 2.088 1.361 3.438 0.748 0.531 1.699 0.623 2.617 0.229 0.344-0.148 0.448-0.299 0.731-0.443zM16.884 32.256h-1.157c-0.594-0.010-1.178-0.029-1.598-0.033l-7.199 0.001c-1.241-0.003-2.646 0.232-3.039-0.567-0.31-0.632-0.959-5.738-1.238-5.989 0.050-0.401-0.253-1.579-0.335-2.042-0.117-0.666-0.25-1.338-0.384-1.998l-0.112-0.688-0.749-3.877c-0.104-0.51-0.172-1.023-0.272-1.52-0.090-0.45-0.293-1.114-0.149-1.545 0.319-0.957 1.769-0.686 2.892-0.686h14.151c0.655 0 3.020-0.11 3.438 0.075 0.927 0.409 0.582 1.626 0.315 2.677l-0.739 3.876-0.123 0.688c-0.053 0.392-0.217 0.781-0.166 1.17-0.011 0.015-0.023 0.021-0.026 0.048l-0.202 0.825c-0.062 0.33-0.096 0.62-0.17 0.95-0.138 0.617-0.205 1.282-0.358 1.884-0.053 0.379-0.23 0.798-0.167 1.17-0.011 0.015-0.021 0.035-0.026 0.048s-0.018 0.033-0.025 0.048c-0.006 0.015-0.016 0.032-0.022 0.048l-0.849 4.453c-0.107 0.507-0.364 0.865-0.879 0.932-0.221 0.029-0.502 0.045-0.815 0.053zM16.699 20.115c0.987-0.741 1.904-1.944 2.327-3.212 0.183-0.547 0.234-1.018 0.39-1.549l-16.446 0.011c0.863 6.66 9.25 8.114 13.729 4.751z"></path>
</symbol>
<symbol id="icon-milk-ice3" viewBox="0 0 32 32">
<path   d="M12.994 22.909c-0.584-0.455-1.208-0.874-1.797-1.323-0.224-0.17-0.445-0.345-0.66-0.525l-2.115-1.777c-0.16-0.133-0.263-0.28-0.408-0.412-0.822-0.752-1.635-1.555-2.375-2.389-1.787-2.016-3.554-4.634-3.928-7.355-0.35-2.548 0.528-4.989 2.432-6.718 1.373-1.247 3.161-2.009 5.011-2.135 2.005-0.136 3.922 0.478 5.487 1.736 0.366 0.294 0.788 0.691 1.11 1.075l0.144-0.171c1.734-2.054 4.748-2.992 7.369-2.528 0.555 0.098 1.521 0.354 2.013 0.641 0.8 0.378 1.634 0.878 2.223 1.546 0.034 0.036 0.069 0.072 0.103 0.107l0.011 0.011 0.584 0.658c0.191 0.227 0.373 0.495 0.525 0.75 0.939 1.576 1.332 3.28 1.025 5.099-0.397 2.358-1.874 4.475-3.316 6.327-0.171 0.219-0.366 0.41-0.542 0.622-0.178 0.215-0.378 0.412-0.552 0.63-0.186 0.234-0.398 0.39-0.592 0.603-0.907 0.996-1.965 1.941-2.984 2.821-1.056 0.912-2.162 1.824-3.294 2.643-0.008 0.13 0.020 0.396 0.020 0.503v5.587c0 0.877 0.061 1.636-0.567 2.339-0.529 0.592-1.188 0.925-1.984 0.976-1.151 0.072-2.346-0.548-2.783-1.647-0.175-0.44-0.167-0.793-0.167-1.252l0.001-2.204c0-1.408 0.067-2.83 0.005-4.238zM25.964 4.009c-0.514-0.448-1.114-0.904-1.741-1.183-0.239-0.080-0.481-0.198-0.715-0.263-2.584-0.722-5.209 0.282-6.662 2.529-0.287 0.443-0.7 0.982-1.303 0.874-0.422-0.075-0.652-0.424-0.855-0.763-0.159-0.265-0.309-0.534-0.518-0.764-2.128-2.354-5.467-2.846-8.068-0.967-0.329 0.238-0.595 0.527-0.891 0.801-0.218 0.201-0.483 0.604-0.641 0.86-0.898 1.453-1.081 2.971-0.605 4.601 0.059 0.203 0.127 0.402 0.202 0.598 0.272-1.181 1.032-2.049 2.462-1.798 0.389 0.069 0.736 0.237 1.022 0.511 0.25 0.24 0.426 0.535 0.551 0.854-0.006-1.5 0.657-2.884 2.276-3.188 1.694-0.318 2.954 0.998 3.222 2.57 0.030 0.176 0.048 0.355 0.061 0.534 0.023 0.32 0.020 1.11 0.203 1.367 0.057 0.080 0.138 0.119 0.23 0.146 0.074 0.021 0.356 0.092 0.428 0.032 0.233-0.193 0.187-1.418 0.181-1.705-0.014-0.629-0.048-1.415 0.162-2.011 0.588-1.676 2.338-2.315 3.786-1.196 0.266 0.205 0.484 0.456 0.653 0.746 0.416 0.711 0.491 1.567 0.484 2.373-0.005 0.575-0.061 1.156-0.051 1.728 0.003 0.164 0.021 0.64 0.149 0.764 0.006 0.005 0.011 0.010 0.017 0.014 0.115 0.071 0.272 0.069 0.398 0.035 0.063-0.017 0.212-0.081 0.24-0.141 0.115-0.424-0.214-1.685-0.302-2.15-0.113-0.602-0.198-1.246-0.104-1.855 0.231-1.496 1.617-2.909 3.219-2.577 1.738 0.36 2.025 2.414 1.89 3.883-0.073 0.796-0.48 2.381 0.463 2.838 0.089 0.043 0.182 0.070 0.279 0.043 0.517-0.141 1.006-1.377 1.179-1.827 0.672-1.747 0.679-3.369-0.26-5.021-0.123-0.217-0.261-0.438-0.419-0.632-0.192-0.235-0.405-0.449-0.624-0.659zM15.703 22.279l1.12-0.786c0.465-0.347 0.929-0.697 1.387-1.054 2.136-1.664 4.164-3.484 5.984-5.489 0.238-0.262 0.469-0.543 0.693-0.817 0.034-0.043 0.069-0.085 0.102-0.127-0.223-0.095-0.415-0.207-0.591-0.34l0.007 0.005c-0.974-0.732-1.365-2.002-1.291-3.181 0.048-0.745 0.262-1.64 0.169-2.372-0.011-0.086-0.027-0.171-0.049-0.255-0.024-0.090-0.138-0.416-0.237-0.45-0.030-0.006-0.115 0.033-0.139 0.046-0.206 0.107-0.373 0.248-0.468 0.464-0.239 0.544 0.013 1.556 0.129 2.118 0.241 1.168 0.489 2.5-0.44 3.448-0.662 0.677-1.878 0.865-2.756 0.546-1.928-0.7-1.536-3.2-1.521-4.816 0.004-0.412-0.090-1.066-0.519-1.263-0.012-0.005-0.064-0.027-0.080-0.021-0.189 0.075-0.332 0.596-0.354 0.776-0.027 0.222-0.015 0.47-0.003 0.692 0.017 0.313 0.042 0.625 0.051 0.939 0.039 1.304-0.239 2.522-1.63 2.973-0.905 0.293-2.079 0.054-2.751-0.633-0.708-0.723-0.771-1.53-0.82-2.492-0.019-0.389-0.172-1.266-0.597-1.437-0.122-0.049-0.258-0.014-0.373 0.036-0.112 0.048-0.205 0.113-0.274 0.214-0.296 0.436-0.116 1.537-0.050 2.032 0.123 0.928 0.309 2.126-0.277 2.936-0.611 0.843-1.704 1.148-2.66 0.721-0.362-0.162-0.655-0.409-0.832-0.768-0.281-0.57-0.173-1.23-0.184-1.842-0.005-0.279-0.038-1.251-0.222-1.506-0.121 0.32-0.087 1.145-0.070 1.39 0.044 0.622 0.139 1.268 0.265 1.879 0.075 0.368 0.033 0.376 0.261 0.64 0.402 0.466 0.763 0.949 1.222 1.364 0.384 0.347 0.749 0.756 1.113 1.127 0.283 0.288 0.594 0.611 0.912 0.859l0.011 0.008 1.452 1.243c0.498 0.388 0.977 0.799 1.484 1.176 0.511 0.38 1.021 0.76 1.538 1.131 0.31 0.223 0.623 0.444 0.94 0.656 0.11 0.074 0.228 0.153 0.347 0.227zM15.069 26.837h0.004v1.52h-0.008c-0.007 0.442-0.012 0.886 0.009 1.326 0.032 0.688 1.286 0.634 1.328 0.043 0.027-0.384 0.028-0.787 0.029-1.176h-0.027v-4.214c-0.181 0.108-0.374 0.196-0.561 0.212-0.268 0.023-0.542-0.089-0.789-0.228-0.008 0.839 0.008 1.678 0.015 2.517z"></path>
</symbol>
<symbol id="icon-milk-ice2" viewBox="0 0 32 32">
<path  d="M22.248 23.506c0.261 0 0.694 0.105 0.876 0.186 0.945 0.423 0.905 1.338 1.832 1.414 0.287 0.024 0.564-0.108 0.747-0.27 0.236-0.209 0.289-0.405 0.497-0.628 0.194-0.209 0.326-0.338 0.601-0.462 1.316-0.59 2.697-0.144 2.697 1.697 0 1.82-0.973 4.375-3.062 4.375-0.994 0-0.778-0.187-1.438-0.187-0.609 0-2.155 0.734-3.286-0.714-0.234-0.299-0.367-0.472-0.548-0.827-0.661-1.297-0.976-3.68-0.043-4.273 0.181-0.115 0.832-0.311 1.127-0.311zM4.306 0.256c-0.539 0.091-1.070 0.632-1.032 2.117 0.052 2.047 0.657 2.623 0.849 3.446-1.412 0.117-3.031 1.454-3.472 2.715-0.112 0.32-0.12 0.449-0.173 0.828-0.061 0.435 0.020 0.486 0.020 0.956 0 0.080-0.628 0.361-0.671 1.011-0.017 0.262 0.19 1.119 0.251 1.472 0.157 0.918 0.376 1.915 0.562 2.876l3.052 15.823c0.132 0.379 0.477 0.756 0.994 0.756h15.312c0.86 0 0.989-0.846 1.062-1 0.203 0.054 0.278 0.16 0.491 0.258 1.75 0.81 2.322 0.39 3.396 0.321 0.562-0.036 4.024 1.313 6.091-3.288 0.146-0.325 0.245-0.666 0.347-1.028 0.5-1.761 0.395-3.987-0.966-5.249-0.483-0.449-1.119-0.689-1.895-0.854-0.972-0.208-1.65 0.054-2.34 0.215 0.018-0.809 0.56-1.832 1.079-2.358 0.907-0.921 0.061-1.941-0.704-1.941-1.253 0-2.562 2.964-2.562 4.362l-1.062-0.313c0.335-1.437 0.911-4.56 1.161-5.964 0.183-1.026 0.378-2.025 0.573-2.989 0.196-0.97 0.459-2.109-1.11-2.109 0.162-0.339 0.172-1.771 0.11-2.235-0.173-1.282-0.788-2.489-1.921-3.079-1.942-1.011-3.404-0.225-3.877-0.186 0.014-0.607 0.368-1.466 0.605-1.895 0.514-0.933 0.958-0.778 0.958-1.667 0-0.416-0.344-0.927-0.873-1h-0.262c-0.517 0.069-1.157 0.546-1.812 1.803-0.323 0.621-0.803 1.915-0.803 2.822-0.224-0.019-0.538-0.178-0.762-0.238-1.010-0.272-1.314-0.074-1.988-0.074-1.324-1.978-3.446-2.613-5.537-1.35-1.088 0.657-1.139 1.133-1.463 1.35-0.018-0.216-0.070-0.271-0.152-0.473-0.8-1.959 0.181-2.674-0.495-3.505-0.128-0.158-0.364-0.292-0.631-0.335h-0.351zM3.561 19.256c0.146 0.098 0.229 0.2 0.374 0.313 1.821 1.419 3.219 2.159 5.61 2.64 3.567 0.717 7.822 0.095 10.739-2.105 0.167-0.126 0.263-0.2 0.422-0.329 0.139-0.112 0.294-0.249 0.418-0.332-0.652 2.8-0.071 1.834-1.101 2.523-2.147 1.437-1.921 4.644-0.962 6.727 0.341 0.74 0.065 0.669 0.001 1.437h-13.437l-1.046-5.392c-0.108-0.633-1.017-5.040-1.017-5.483zM2.498 12.443h19.875c0 1.232-0.774 3.086-1.419 3.957-0.166 0.224-0.299 0.389-0.464 0.598-1.677 2.122-4.917 3.321-7.554 3.321-2.036 0-2.741-0.053-4.634-0.679-1.087-0.36-1.944-0.901-2.769-1.543-1.75-1.363-2.74-3.354-3.035-5.653zM12.061 10.319h-9.375c-0.084-0.709-0.19-1.121 0.609-1.829 1.247-1.104 2.544-0.197 3.070-0.209 1.352-0.031 0.823-1.553 1.385-2.46 0.421-0.678 1.589-1.42 2.52-0.898 1.087 0.609 1.916 2.56 1.916 3.896 0 1.050-0.118 1.206-0.125 1.5zM13.998 6.694c1.545 0 1.625 1.569 2.65 1.647 1.049 0.079 1.28-1.647 2.662-1.647 1.025 0 1.83 0.069 2.128 1.247 0.295 1.168-0.052 1.785-0.065 2.379h-7.125c0.317-0.66 0.018-3.026-0.25-3.625z"></path>
</symbol>
</defs>
</svg>
