<!-- Generated by IcoMoon.io -->
<svg version="1.1" xmlns="http://www.w3.org/2000/svg" width="23" height="32" viewBox="0 0 23 32">
<title>milk-ice1</title>
<path fill="#ffa5ba" d="M16.687 30.167c0.178-0.419 1.492-8.155 1.687-8.726-0.261 0.109-0.48 0.354-0.715 0.521-0.771 0.552-1.459 0.884-2.354 1.23-1.146 0.442-2.654 0.728-4.13 0.713-1.994-0.021-4.154-0.474-5.77-1.483-0.224-0.14-0.537-0.33-0.751-0.485-0.228-0.167-0.413-0.424-0.678-0.496 0.47 2.102 1.038 5.387 1.466 7.696 0.055 0.296 0.109 0.765 0.196 1.030h11.049zM6.807 5.525c-0.686 0-1.185 0.809-1.557 1.146-0.674 0.614-1.55-0.263-0.937-0.956 0.329-0.372 1.115-0.934 1.189-1.543 0.069-0.57-0.649-1.391-0.855-1.831h13.055c-0.199 0.424-0.489 0.764-0.717 1.186-0.569 1.056 0.637 1.615 1.109 2.256 0.326 0.443 0.076 1.016-0.41 1.085-1.016 0.144-1.312-2.111-2.885-1.062-1.466 0.978-2.677 0.714-2.911 1.669-0.207 0.847 0.39 3.015-0.815 2.818-0.58-0.095-0.579-0.624-0.576-1.231 0.002-0.493 0.086-1.376-0.1-1.772-0.216-0.458-0.584-0.541-1.108-0.687-1.27-0.353-1.942-1.078-2.483-1.078zM13.021 11.687c0.24-0.716 0.862-0.062 0.862-3.188 0.522-0.085 1.068-0.438 1.538-0.625 0.397 0.602 1.050 0.786 1.292 0.948 2.601 0.555 3.944-1.516 3.45-3.394-0.177-0.672-0.586-1.091-0.996-1.462 0.097-0.327 0.412-0.68 0.559-1.091 0.143-0.401 0.223-0.953 0.224-1.441 0.001-1.282-1.046-1.169-2.191-1.153-2.163 0.031-4.422 0.042-6.583 0.002-2.155-0.040-4.428-0.034-6.583 0.003-0.403 0.007-1.218-0.058-1.554 0.072-1.046 0.405-0.614 2.201-0.174 3.022 0.124 0.232 0.24 0.329 0.32 0.586-2.323 2.104-0.672 5.096 1.781 4.97 0.831-0.043 1.653-0.605 1.959-1.069l1.389 0.596c0.633 0.363-0.543 2.088 1.361 3.438 0.748 0.531 1.699 0.623 2.617 0.229 0.344-0.148 0.448-0.299 0.731-0.443zM16.884 32.256h-1.157c-0.594-0.010-1.178-0.029-1.598-0.033l-7.199 0.001c-1.241-0.003-2.646 0.232-3.039-0.567-0.31-0.632-0.959-5.738-1.238-5.989 0.050-0.401-0.253-1.579-0.335-2.042-0.117-0.666-0.25-1.338-0.384-1.998l-0.112-0.688-0.749-3.877c-0.104-0.51-0.172-1.023-0.272-1.52-0.090-0.45-0.293-1.114-0.149-1.545 0.319-0.957 1.769-0.686 2.892-0.686h14.151c0.655 0 3.020-0.11 3.438 0.075 0.927 0.409 0.582 1.626 0.315 2.677l-0.739 3.876-0.123 0.688c-0.053 0.392-0.217 0.781-0.166 1.17-0.011 0.015-0.023 0.021-0.026 0.048l-0.202 0.825c-0.062 0.33-0.096 0.62-0.17 0.95-0.138 0.617-0.205 1.282-0.358 1.884-0.053 0.379-0.23 0.798-0.167 1.17-0.011 0.015-0.021 0.035-0.026 0.048s-0.018 0.033-0.025 0.048c-0.006 0.015-0.016 0.032-0.022 0.048l-0.849 4.453c-0.107 0.507-0.364 0.865-0.879 0.932-0.221 0.029-0.502 0.045-0.815 0.053zM16.699 20.115c0.987-0.741 1.904-1.944 2.327-3.212 0.183-0.547 0.234-1.018 0.39-1.549l-16.446 0.011c0.863 6.66 9.25 8.114 13.729 4.751z"></path>
</svg>
