<!-- Generated by IcoMoon.io -->
<svg version="1.1" xmlns="http://www.w3.org/2000/svg" width="32" height="32" viewBox="0 0 32 32">
<title>milk-ice3</title>
<path fill="#ffa5ba" d="M12.994 22.909c-0.584-0.455-1.208-0.874-1.797-1.323-0.224-0.17-0.445-0.345-0.66-0.525l-2.115-1.777c-0.16-0.133-0.263-0.28-0.408-0.412-0.822-0.752-1.635-1.555-2.375-2.389-1.787-2.016-3.554-4.634-3.928-7.355-0.35-2.548 0.528-4.989 2.432-6.718 1.373-1.247 3.161-2.009 5.011-2.135 2.005-0.136 3.922 0.478 5.487 1.736 0.366 0.294 0.788 0.691 1.11 1.075l0.144-0.171c1.734-2.054 4.748-2.992 7.369-2.528 0.555 0.098 1.521 0.354 2.013 0.641 0.8 0.378 1.634 0.878 2.223 1.546 0.034 0.036 0.069 0.072 0.103 0.107l0.011 0.011 0.584 0.658c0.191 0.227 0.373 0.495 0.525 0.75 0.939 1.576 1.332 3.28 1.025 5.099-0.397 2.358-1.874 4.475-3.316 6.327-0.171 0.219-0.366 0.41-0.542 0.622-0.178 0.215-0.378 0.412-0.552 0.63-0.186 0.234-0.398 0.39-0.592 0.603-0.907 0.996-1.965 1.941-2.984 2.821-1.056 0.912-2.162 1.824-3.294 2.643-0.008 0.13 0.020 0.396 0.020 0.503v5.587c0 0.877 0.061 1.636-0.567 2.339-0.529 0.592-1.188 0.925-1.984 0.976-1.151 0.072-2.346-0.548-2.783-1.647-0.175-0.44-0.167-0.793-0.167-1.252l0.001-2.204c0-1.408 0.067-2.83 0.005-4.238zM25.964 4.009c-0.514-0.448-1.114-0.904-1.741-1.183-0.239-0.080-0.481-0.198-0.715-0.263-2.584-0.722-5.209 0.282-6.662 2.529-0.287 0.443-0.7 0.982-1.303 0.874-0.422-0.075-0.652-0.424-0.855-0.763-0.159-0.265-0.309-0.534-0.518-0.764-2.128-2.354-5.467-2.846-8.068-0.967-0.329 0.238-0.595 0.527-0.891 0.801-0.218 0.201-0.483 0.604-0.641 0.86-0.898 1.453-1.081 2.971-0.605 4.601 0.059 0.203 0.127 0.402 0.202 0.598 0.272-1.181 1.032-2.049 2.462-1.798 0.389 0.069 0.736 0.237 1.022 0.511 0.25 0.24 0.426 0.535 0.551 0.854-0.006-1.5 0.657-2.884 2.276-3.188 1.694-0.318 2.954 0.998 3.222 2.57 0.030 0.176 0.048 0.355 0.061 0.534 0.023 0.32 0.020 1.11 0.203 1.367 0.057 0.080 0.138 0.119 0.23 0.146 0.074 0.021 0.356 0.092 0.428 0.032 0.233-0.193 0.187-1.418 0.181-1.705-0.014-0.629-0.048-1.415 0.162-2.011 0.588-1.676 2.338-2.315 3.786-1.196 0.266 0.205 0.484 0.456 0.653 0.746 0.416 0.711 0.491 1.567 0.484 2.373-0.005 0.575-0.061 1.156-0.051 1.728 0.003 0.164 0.021 0.64 0.149 0.764 0.006 0.005 0.011 0.010 0.017 0.014 0.115 0.071 0.272 0.069 0.398 0.035 0.063-0.017 0.212-0.081 0.24-0.141 0.115-0.424-0.214-1.685-0.302-2.15-0.113-0.602-0.198-1.246-0.104-1.855 0.231-1.496 1.617-2.909 3.219-2.577 1.738 0.36 2.025 2.414 1.89 3.883-0.073 0.796-0.48 2.381 0.463 2.838 0.089 0.043 0.182 0.070 0.279 0.043 0.517-0.141 1.006-1.377 1.179-1.827 0.672-1.747 0.679-3.369-0.26-5.021-0.123-0.217-0.261-0.438-0.419-0.632-0.192-0.235-0.405-0.449-0.624-0.659zM15.703 22.279l1.12-0.786c0.465-0.347 0.929-0.697 1.387-1.054 2.136-1.664 4.164-3.484 5.984-5.489 0.238-0.262 0.469-0.543 0.693-0.817 0.034-0.043 0.069-0.085 0.102-0.127-0.223-0.095-0.415-0.207-0.591-0.34l0.007 0.005c-0.974-0.732-1.365-2.002-1.291-3.181 0.048-0.745 0.262-1.64 0.169-2.372-0.011-0.086-0.027-0.171-0.049-0.255-0.024-0.090-0.138-0.416-0.237-0.45-0.030-0.006-0.115 0.033-0.139 0.046-0.206 0.107-0.373 0.248-0.468 0.464-0.239 0.544 0.013 1.556 0.129 2.118 0.241 1.168 0.489 2.5-0.44 3.448-0.662 0.677-1.878 0.865-2.756 0.546-1.928-0.7-1.536-3.2-1.521-4.816 0.004-0.412-0.090-1.066-0.519-1.263-0.012-0.005-0.064-0.027-0.080-0.021-0.189 0.075-0.332 0.596-0.354 0.776-0.027 0.222-0.015 0.47-0.003 0.692 0.017 0.313 0.042 0.625 0.051 0.939 0.039 1.304-0.239 2.522-1.63 2.973-0.905 0.293-2.079 0.054-2.751-0.633-0.708-0.723-0.771-1.53-0.82-2.492-0.019-0.389-0.172-1.266-0.597-1.437-0.122-0.049-0.258-0.014-0.373 0.036-0.112 0.048-0.205 0.113-0.274 0.214-0.296 0.436-0.116 1.537-0.050 2.032 0.123 0.928 0.309 2.126-0.277 2.936-0.611 0.843-1.704 1.148-2.66 0.721-0.362-0.162-0.655-0.409-0.832-0.768-0.281-0.57-0.173-1.23-0.184-1.842-0.005-0.279-0.038-1.251-0.222-1.506-0.121 0.32-0.087 1.145-0.070 1.39 0.044 0.622 0.139 1.268 0.265 1.879 0.075 0.368 0.033 0.376 0.261 0.64 0.402 0.466 0.763 0.949 1.222 1.364 0.384 0.347 0.749 0.756 1.113 1.127 0.283 0.288 0.594 0.611 0.912 0.859l0.011 0.008 1.452 1.243c0.498 0.388 0.977 0.799 1.484 1.176 0.511 0.38 1.021 0.76 1.538 1.131 0.31 0.223 0.623 0.444 0.94 0.656 0.11 0.074 0.228 0.153 0.347 0.227zM15.069 26.837h0.004v1.52h-0.008c-0.007 0.442-0.012 0.886 0.009 1.326 0.032 0.688 1.286 0.634 1.328 0.043 0.027-0.384 0.028-0.787 0.029-1.176h-0.027v-4.214c-0.181 0.108-0.374 0.196-0.561 0.212-0.268 0.023-0.542-0.089-0.789-0.228-0.008 0.839 0.008 1.678 0.015 2.517z"></path>
</svg>
