<!-- Generated by IcoMoon.io -->
<svg version="1.1" xmlns="http://www.w3.org/2000/svg" width="32" height="32" viewBox="0 0 32 32">
<title>milk-ice2</title>
<path fill="#ffa5ba" d="M22.248 23.506c0.261 0 0.694 0.105 0.876 0.186 0.945 0.423 0.905 1.338 1.832 1.414 0.287 0.024 0.564-0.108 0.747-0.27 0.236-0.209 0.289-0.405 0.497-0.628 0.194-0.209 0.326-0.338 0.601-0.462 1.316-0.59 2.697-0.144 2.697 1.697 0 1.82-0.973 4.375-3.062 4.375-0.994 0-0.778-0.187-1.438-0.187-0.609 0-2.155 0.734-3.286-0.714-0.234-0.299-0.367-0.472-0.548-0.827-0.661-1.297-0.976-3.68-0.043-4.273 0.181-0.115 0.832-0.311 1.127-0.311zM4.306 0.256c-0.539 0.091-1.070 0.632-1.032 2.117 0.052 2.047 0.657 2.623 0.849 3.446-1.412 0.117-3.031 1.454-3.472 2.715-0.112 0.32-0.12 0.449-0.173 0.828-0.061 0.435 0.020 0.486 0.020 0.956 0 0.080-0.628 0.361-0.671 1.011-0.017 0.262 0.19 1.119 0.251 1.472 0.157 0.918 0.376 1.915 0.562 2.876l3.052 15.823c0.132 0.379 0.477 0.756 0.994 0.756h15.312c0.86 0 0.989-0.846 1.062-1 0.203 0.054 0.278 0.16 0.491 0.258 1.75 0.81 2.322 0.39 3.396 0.321 0.562-0.036 4.024 1.313 6.091-3.288 0.146-0.325 0.245-0.666 0.347-1.028 0.5-1.761 0.395-3.987-0.966-5.249-0.483-0.449-1.119-0.689-1.895-0.854-0.972-0.208-1.65 0.054-2.34 0.215 0.018-0.809 0.56-1.832 1.079-2.358 0.907-0.921 0.061-1.941-0.704-1.941-1.253 0-2.562 2.964-2.562 4.362l-1.062-0.313c0.335-1.437 0.911-4.56 1.161-5.964 0.183-1.026 0.378-2.025 0.573-2.989 0.196-0.97 0.459-2.109-1.11-2.109 0.162-0.339 0.172-1.771 0.11-2.235-0.173-1.282-0.788-2.489-1.921-3.079-1.942-1.011-3.404-0.225-3.877-0.186 0.014-0.607 0.368-1.466 0.605-1.895 0.514-0.933 0.958-0.778 0.958-1.667 0-0.416-0.344-0.927-0.873-1h-0.262c-0.517 0.069-1.157 0.546-1.812 1.803-0.323 0.621-0.803 1.915-0.803 2.822-0.224-0.019-0.538-0.178-0.762-0.238-1.010-0.272-1.314-0.074-1.988-0.074-1.324-1.978-3.446-2.613-5.537-1.35-1.088 0.657-1.139 1.133-1.463 1.35-0.018-0.216-0.070-0.271-0.152-0.473-0.8-1.959 0.181-2.674-0.495-3.505-0.128-0.158-0.364-0.292-0.631-0.335h-0.351zM3.561 19.256c0.146 0.098 0.229 0.2 0.374 0.313 1.821 1.419 3.219 2.159 5.61 2.64 3.567 0.717 7.822 0.095 10.739-2.105 0.167-0.126 0.263-0.2 0.422-0.329 0.139-0.112 0.294-0.249 0.418-0.332-0.652 2.8-0.071 1.834-1.101 2.523-2.147 1.437-1.921 4.644-0.962 6.727 0.341 0.74 0.065 0.669 0.001 1.437h-13.437l-1.046-5.392c-0.108-0.633-1.017-5.040-1.017-5.483zM2.498 12.443h19.875c0 1.232-0.774 3.086-1.419 3.957-0.166 0.224-0.299 0.389-0.464 0.598-1.677 2.122-4.917 3.321-7.554 3.321-2.036 0-2.741-0.053-4.634-0.679-1.087-0.36-1.944-0.901-2.769-1.543-1.75-1.363-2.74-3.354-3.035-5.653zM12.061 10.319h-9.375c-0.084-0.709-0.19-1.121 0.609-1.829 1.247-1.104 2.544-0.197 3.070-0.209 1.352-0.031 0.823-1.553 1.385-2.46 0.421-0.678 1.589-1.42 2.52-0.898 1.087 0.609 1.916 2.56 1.916 3.896 0 1.050-0.118 1.206-0.125 1.5zM13.998 6.694c1.545 0 1.625 1.569 2.65 1.647 1.049 0.079 1.28-1.647 2.662-1.647 1.025 0 1.83 0.069 2.128 1.247 0.295 1.168-0.052 1.785-0.065 2.379h-7.125c0.317-0.66 0.018-3.026-0.25-3.625z"></path>
</svg>
